<svg xmlns="http://www.w3.org/2000/svg" viewBox="0 0 9.94 14.83"><defs><style>.cls-1{fill:#fff;}</style></defs><g id="Layer_2" data-name="Layer 2"><g id="Layer_2-2" data-name="Layer 2"><path class="cls-1" d="M8.45,0H1.5A1.5,1.5,0,0,0,0,1.5V13.34a1.5,1.5,0,0,0,1.5,1.49h7a1.49,1.49,0,0,0,1.49-1.49V1.5A1.5,1.5,0,0,0,8.45,0ZM2.91,13.34H1.66a.22.22,0,0,1-.22-.22V11.88a.22.22,0,0,1,.22-.22H2.91a.21.21,0,0,1,.21.22v1.24A.21.21,0,0,1,2.91,13.34Zm0-2.76H1.66a.22.22,0,0,1-.22-.22V9.12a.22.22,0,0,1,.22-.22H2.91a.21.21,0,0,1,.21.22v1.24A.21.21,0,0,1,2.91,10.58Zm0-2.85H1.66a.22.22,0,0,1-.22-.22V6.27a.22.22,0,0,1,.22-.22H2.91a.21.21,0,0,1,.21.22V7.51A.21.21,0,0,1,2.91,7.73ZM5.5,13.34H4.26A.22.22,0,0,1,4,13.12V11.88a.22.22,0,0,1,.22-.22H5.5a.22.22,0,0,1,.22.22v1.24A.22.22,0,0,1,5.5,13.34Zm0-2.76H4.26A.22.22,0,0,1,4,10.36V9.12a.22.22,0,0,1,.22-.22H5.5a.22.22,0,0,1,.22.22v1.24A.22.22,0,0,1,5.5,10.58Zm0-2.85H4.26A.22.22,0,0,1,4,7.51V6.27a.22.22,0,0,1,.22-.22H5.5a.22.22,0,0,1,.22.22V7.51A.22.22,0,0,1,5.5,7.73Zm2.78,5.61H7a.22.22,0,0,1-.22-.22V11.88A.22.22,0,0,1,7,11.66H8.28a.22.22,0,0,1,.22.22v1.24A.22.22,0,0,1,8.28,13.34Zm0-2.76H7a.22.22,0,0,1-.22-.22V9.12A.22.22,0,0,1,7,8.9H8.28a.22.22,0,0,1,.22.22v1.24A.22.22,0,0,1,8.28,10.58Zm0-2.85H7a.22.22,0,0,1-.22-.22V6.27A.22.22,0,0,1,7,6.05H8.28a.22.22,0,0,1,.22.22V7.51A.22.22,0,0,1,8.28,7.73ZM8.7,4H1.25A.22.22,0,0,1,1,3.81V1.93a1,1,0,0,1,1-1H7.9a1,1,0,0,1,1,1V3.81A.22.22,0,0,1,8.7,4Z"/></g></g></svg>