<svg xmlns="http://www.w3.org/2000/svg" xmlns:xlink="http://www.w3.org/1999/xlink" viewBox="0 0 598.11 171.9"><defs><style>.cls-1{opacity:0.13;}.cls-13,.cls-2,.cls-3,.cls-4,.cls-5,.cls-6,.cls-7,.cls-8,.cls-9{stroke:#000;}.cls-11,.cls-12,.cls-13,.cls-2,.cls-3,.cls-4,.cls-5,.cls-6,.cls-7,.cls-8,.cls-9{stroke-miterlimit:10;stroke-width:0.25px;}.cls-2{fill:url(#linear-gradient);}.cls-3{fill:url(#linear-gradient-2);}.cls-4{fill:url(#linear-gradient-3);}.cls-5{fill:url(#linear-gradient-4);}.cls-6{fill:url(#linear-gradient-5);}.cls-7{fill:url(#linear-gradient-6);}.cls-8{fill:url(#linear-gradient-7);}.cls-9{fill:url(#linear-gradient-8);}.cls-10{fill:#3a3a3a;}.cls-11,.cls-12{stroke:#1e1e1c;}.cls-11{fill:url(#linear-gradient-9);}.cls-12{fill:url(#linear-gradient-10);}.cls-13{fill:url(#linear-gradient-11);}</style><linearGradient id="linear-gradient" x1="126.71" y1="51.47" x2="176.3" y2="51.47" gradientUnits="userSpaceOnUse"><stop offset="0" stop-color="gray"/><stop offset="0.5" stop-color="#999" stop-opacity="0.1"/><stop offset="1" stop-color="#999"/></linearGradient><linearGradient id="linear-gradient-2" x1="179.94" y1="49.42" x2="187.41" y2="49.42" xlink:href="#linear-gradient"/><linearGradient id="linear-gradient-3" x1="205.76" y1="30.6" x2="213.71" y2="30.6" xlink:href="#linear-gradient"/><linearGradient id="linear-gradient-4" x1="204.36" y1="73.36" x2="211.28" y2="73.36" xlink:href="#linear-gradient"/><linearGradient id="linear-gradient-5" x1="225.9" y1="71.54" x2="257.67" y2="71.54" xlink:href="#linear-gradient"/><linearGradient id="linear-gradient-6" x1="276.4" y1="44.84" x2="330.36" y2="44.84" xlink:href="#linear-gradient"/><linearGradient id="linear-gradient-7" x1="389.55" y1="71.17" x2="427.37" y2="71.17" xlink:href="#linear-gradient"/><linearGradient id="linear-gradient-8" x1="432.77" y1="114.53" x2="478.21" y2="114.53" xlink:href="#linear-gradient"/><linearGradient id="linear-gradient-9" x1="0.13" y1="58.01" x2="99.91" y2="58.01" xlink:href="#linear-gradient"/><linearGradient id="linear-gradient-10" x1="498.19" y1="53.49" x2="597.98" y2="53.49" xlink:href="#linear-gradient"/><linearGradient id="linear-gradient-11" x1="345.54" y1="70.07" x2="375.51" y2="70.07" xlink:href="#linear-gradient"/></defs><g id="Layer_2" data-name="Layer 2"><g id="Capa_1" data-name="Capa 1"><path class="cls-1" d="M375,56.6c-4.23-3.48-9.68-2.55-10.83-2.35-7.55,1.29-14.15,8.51-14.74,16.83-.37,5.3,1.57,12.84,6.92,15.26,8.15,3.69,21.18-5.92,22.82-16.44C379.32,69,380.44,61.06,375,56.6ZM373.18,69c-.45,6.31-8.9,12-13.69,9.91a5.84,5.84,0,0,1-2.87-3c-2.33-5.06,1.94-13,7.67-14.43a7.59,7.59,0,0,1,6.28,1C373.43,64.64,373.21,68.61,373.18,69Z"/><path class="cls-1" d="M141,17.34s-4.4,0-4.11,11.34c.28,10.65,1.84,14.58,2,27.47A2.79,2.79,0,0,1,136.61,59c-2.49.36-6,1.55-6,5.43s3.25,4.64,5.66,4.79a2.74,2.74,0,0,1,2.58,2.73l.07,9.58a11.15,11.15,0,0,0,.25,1.49,11,11,0,0,0,.34,1.12c.45,1.11,2.44,2.93,4.5,2.4,1.78-.45,2.47-2.49,2.85-3.57a8,8,0,0,0,.43-2.79c-.05-4.35-.7-10.45-.84-11.74A40.42,40.42,0,0,1,157,67.28h.25L174.52,67a2.69,2.69,0,0,0,1.3-.35,9.72,9.72,0,0,0,4.12-4.78,2.77,2.77,0,0,0-2.73-3.86c-8.44.61-28.52,1.94-30.72,1-2.81-1.24-2-30.33-2-30.33S144.79,17.4,141,17.34Z"/><path class="cls-1" d="M190.28,15.18a2.76,2.76,0,0,0-5.34.2,44.87,44.87,0,0,0-.82,6.72c-.51,8.61-.3,17.26-.13,25.89.18,9.09.27,21.83.14,25.69,0,1.79,0,3.58,0,5.36a11.56,11.56,0,0,0,.08,2.67,8.4,8.4,0,0,0,1.9,3.84,2.75,2.75,0,0,0,4,.37h0c1.67-1.53,1.16-5.77,1.08-6.45,0-.26-.18-1.32-.39-2.64a15.24,15.24,0,0,1-.22-1.77,11.74,11.74,0,0,1,0-1.54c.11-2-.55-15.22-.66-17.73a195.39,195.39,0,0,1,.29-22.55c.27-3.36.33-4.91.46-8,.19-4.79,0-3,.08-4.5a39.17,39.17,0,0,0-.23-4.94A2.79,2.79,0,0,0,190.28,15.18Z"/><ellipse class="cls-1" cx="213.59" cy="31.1" rx="3.98" ry="5.8"/><path class="cls-1" d="M215,74.42c-.27,8.51-.27,11.32-2,12.08a3.45,3.45,0,0,1-3.23-.64c-1.12-.87-1.36-2.19-1.47-8.75-.08-5,.1-2.06.2-9.34.05-3.41,0-4.86,1.13-5.82a3.84,3.84,0,0,1,4.15-.54C215.44,62.39,215.25,65,215,74.42Z"/><path class="cls-1" d="M246.24,68.47c-.39-.19-1-.46-1.64-.75a9.15,9.15,0,0,0-2.25-.78,4.52,4.52,0,0,0-3,.87,6.08,6.08,0,0,0-2.55,4.08,5.24,5.24,0,0,0,.68,3.6,6,6,0,0,0,4,2.34c5.33,1.2,12.17-1.74,14.56-3.59a3.54,3.54,0,0,1,2-.82,3.49,3.49,0,0,1,2.77,1.28,4.12,4.12,0,0,1,.16,4.5,4.41,4.41,0,0,1-1.44,1.48c-2.8,1.78-20,8-27.24-.64a10.65,10.65,0,0,1-2.1-3.88c-1.37-4.79,1-10.37,4.93-13.5.55-.43,6.4-4.89,11.84-2.3a9.51,9.51,0,0,1,4,3.87,3.57,3.57,0,0,1-1.36,4A3.71,3.71,0,0,1,246.24,68.47Z"/><path class="cls-1" d="M281.3,2.27c-1,1.58-1.33,4.21,1.61,8.24a3.73,3.73,0,0,1,.71,2.06,373.53,373.53,0,0,1-3,54.27s-2.1,22.5,4.35,22.69c0,0,2.11,2.18,6.72-2.47a2.85,2.85,0,0,0,.23-.26c.89-1.06,7.58-8.84,14.24-10.19a3.73,3.73,0,0,1,4.33,2.51c.87,2.78,2.88,6.89,7.16,6.89h12.07a3.73,3.73,0,0,0,2.45-.91c1.62-1.4,3.84-4.19-.21-6.74a3.57,3.57,0,0,0-2-.54c-3.61,0-15.95-.13-14.28-4.86.4-1.15,1.08-2.18,4.66-4.77,1-.69,1.67-1.18,1.73-1.22,3.7-2.53,8.29-8,7-10.48-.59-1.16-2.41-1.63-3.77-1.53-3.47.24-4.53,4.2-10.63,9-1.07.85-2,1.49-2.61,1.89L290.22,76.62s-3.32,3-2.93-3.66,5.17-49.22,2.63-62.35a3.88,3.88,0,0,1-.07-.83c0-1.41-.05-6.34-3.35-8.52A3.71,3.71,0,0,0,281.3,2.27Z"/><path class="cls-1" d="M395.68,68c-4.14,7.42-1.85,17,.72,18.33a3.75,3.75,0,0,0,2.15.39A4,4,0,0,0,401,84.88c2.48-3.57-.62-9.43,1.61-13.69,1.31-2.49,3.92-3.39,7.34-4.57,8.28-2.85,18.37-1.15,20.42-3.37a3.59,3.59,0,0,0,.78-1.37,4.18,4.18,0,0,0-.52-2.86c-1.22-2.21-9.34-3.63-18.59-1.05C406.2,59.6,399.3,61.52,395.68,68Z"/><path class="cls-1" d="M443.45,64a12.16,12.16,0,0,0,4.35,5.16,12,12,0,0,0,6.58,2c10.07.1,16.53-9.68,16.53-9.68s5-6.8,7.07-.9a3.57,3.57,0,0,1,.16,1.62c-.18,1.44-.49,4.7.11,6.71,0,0,18.68,42.09-26.51,101.6a3.57,3.57,0,1,1-5.66-4.36c11.07-14.09,36.72-51.88,27.47-89.66a3.59,3.59,0,0,0-5.29-2.25c-3.36,2-8.42,4.29-13.23,4.29-8.22,0-15.13-7.37-15.13-7.37-.27-.33-3.55-4.54-3.25-7.93a4.66,4.66,0,0,1,1.1-2.92A2.69,2.69,0,0,1,439,59.4C440.33,59.12,442.22,61,443.45,64Z"/><path class="cls-2" d="M137.18,16.84s-4.4,0-4.11,11.35c.28,10.65,1.84,14.58,2,27.47a2.79,2.79,0,0,1-2.35,2.81c-2.49.36-6,1.55-6,5.43s3.25,4.64,5.66,4.78A2.75,2.75,0,0,1,135,71.41L135,81a10.8,10.8,0,0,0,.25,1.48c.14.57.3,1,.34,1.13.45,1.11,2.43,2.93,4.5,2.4,1.78-.46,2.47-2.49,2.85-3.57a8,8,0,0,0,.43-2.79c0-4.36-.7-10.45-.84-11.74a40,40,0,0,1,10.58-1.12h.25l17.28-.25a2.81,2.81,0,0,0,1.3-.35,9.72,9.72,0,0,0,4.12-4.78,2.78,2.78,0,0,0-2.73-3.87c-8.44.61-28.52,1.94-30.72,1-2.81-1.24-2-30.33-2-30.33S140.93,16.91,137.18,16.84Z"/><path class="cls-3" d="M186.42,14.68a2.76,2.76,0,0,0-5.34.21,44.71,44.71,0,0,0-.82,6.71c-.51,8.62-.3,17.27-.13,25.89.18,9.1.26,21.83.14,25.7-.05,1.78,0,3.57,0,5.36a10.94,10.94,0,0,0,.08,2.66,8.4,8.4,0,0,0,1.9,3.84,2.76,2.76,0,0,0,4,.38h0c1.67-1.54,1.16-5.78,1.08-6.46,0-.25-.18-1.32-.39-2.64a15,15,0,0,1-.22-1.76,11.74,11.74,0,0,1,0-1.54c.11-2-.55-15.23-.67-17.73a197.21,197.21,0,0,1,.3-22.55c.27-3.36.33-4.92.46-8,.19-4.8,0-3,.08-4.5a39.11,39.11,0,0,0-.23-4.94A2.85,2.85,0,0,0,186.42,14.68Z"/><ellipse class="cls-4" cx="209.73" cy="30.6" rx="3.98" ry="5.8"/><path class="cls-5" d="M211.09,73.92c-.27,8.51-.27,11.33-2,12.09a3.45,3.45,0,0,1-3.23-.64c-1.12-.87-1.36-2.2-1.47-8.76-.08-5,.1-2,.2-9.34,0-3.41,0-4.85,1.13-5.82a3.88,3.88,0,0,1,4.15-.54C211.58,61.9,211.39,64.45,211.09,73.92Z"/><path class="cls-6" d="M242.38,68c-.39-.19-.95-.45-1.64-.74a9.78,9.78,0,0,0-2.25-.79,4.58,4.58,0,0,0-3,.87A6.1,6.1,0,0,0,233,71.39a5.26,5.26,0,0,0,.68,3.61,6,6,0,0,0,4,2.33c5.33,1.21,12.17-1.73,14.56-3.59a3.25,3.25,0,0,1,4.74.47,4.11,4.11,0,0,1,.16,4.49,4.28,4.28,0,0,1-1.45,1.49c-2.79,1.77-19.95,8-27.23-.65a10.56,10.56,0,0,1-2.1-3.87c-1.37-4.79,1-10.38,4.93-13.5.55-.43,6.4-4.9,11.84-2.3a9.44,9.44,0,0,1,4,3.86,3.61,3.61,0,0,1-1.36,4.05A3.7,3.7,0,0,1,242.38,68Z"/><path class="cls-7" d="M277.44,1.77c-1,1.59-1.33,4.21,1.61,8.25a3.71,3.71,0,0,1,.71,2.06,373.46,373.46,0,0,1-3,54.26s-2.1,22.5,4.35,22.7c0,0,2.11,2.17,6.72-2.47a2.85,2.85,0,0,0,.23-.26c.89-1.06,7.58-8.84,14.24-10.2a3.74,3.74,0,0,1,4.33,2.51c.87,2.78,2.88,6.89,7.16,6.89h12.07a3.72,3.72,0,0,0,2.45-.9c1.62-1.4,3.84-4.19-.21-6.75a3.66,3.66,0,0,0-2-.54c-3.61.05-15.95-.13-14.28-4.86.4-1.14,1.08-2.17,4.66-4.77,1-.69,1.67-1.18,1.73-1.22,3.7-2.53,8.29-8,7-10.48-.59-1.15-2.41-1.62-3.77-1.53-3.47.25-4.53,4.2-10.63,9-1.07.85-2,1.48-2.61,1.89L286.36,76.12s-3.32,3-2.93-3.66,5.17-49.22,2.63-62.35a3.83,3.83,0,0,1-.07-.83c.05-1.41-.05-6.34-3.35-8.51A3.71,3.71,0,0,0,277.44,1.77Z"/><path class="cls-8" d="M391.82,67.52c-4.14,7.42-1.85,17,.72,18.32a3.65,3.65,0,0,0,2.15.39,4.06,4.06,0,0,0,2.46-1.84c2.48-3.58-.62-9.44,1.61-13.69,1.31-2.5,3.92-3.4,7.34-4.57,8.28-2.85,18.37-1.15,20.42-3.37a3.59,3.59,0,0,0,.78-1.37,4.21,4.21,0,0,0-.52-2.87c-1.22-2.21-9.34-3.63-18.59-1.05C402.34,59.1,395.44,61,391.82,67.52Z"/><path class="cls-9" d="M439.59,63.54a11.86,11.86,0,0,0,10.93,7.11c10.07.09,16.53-9.69,16.53-9.69s5-6.79,7.07-.89a3.54,3.54,0,0,1,.16,1.62c-.18,1.44-.49,4.7.11,6.71,0,0,18.68,42.08-26.51,101.6a3.61,3.61,0,0,1-2.85,1.41,3.57,3.57,0,0,1-2.81-5.77c11.07-14.09,36.72-51.89,27.47-89.67a3.59,3.59,0,0,0-5.29-2.24C461,75.67,456,78,451.17,78,443,78,436,70.65,436,70.65c-.27-.34-3.55-4.55-3.25-7.93a4.68,4.68,0,0,1,1.1-2.93,2.68,2.68,0,0,1,1.27-.88C436.47,58.63,438.35,60.46,439.59,63.54Z"/><path class="cls-10" d="M268.49,107.39v17.52h-2.26V107.39Z"/><path class="cls-10" d="M274.19,115.73c0-1.3,0-2.36-.11-3.4h2l.13,2.08h.05a4.63,4.63,0,0,1,4.16-2.37c1.75,0,4.45,1,4.45,5.36v7.51h-2.29v-7.25c0-2-.75-3.72-2.91-3.72a3.24,3.24,0,0,0-3.07,2.34,3.35,3.35,0,0,0-.15,1.06v7.57h-2.29Z"/><path class="cls-10" d="M301.05,106.45v15.21c0,1.12,0,2.39.1,3.25h-2l-.11-2.18h-.05a4.66,4.66,0,0,1-4.29,2.47c-3,0-5.38-2.58-5.38-6.4,0-4.19,2.57-6.76,5.64-6.76a4.24,4.24,0,0,1,3.8,1.92h.05v-7.51Zm-2.29,11a3.88,3.88,0,0,0-.11-1,3.36,3.36,0,0,0-3.3-2.66c-2.37,0-3.77,2.08-3.77,4.87,0,2.54,1.25,4.65,3.72,4.65a3.43,3.43,0,0,0,3.35-2.73,3.85,3.85,0,0,0,.11-1Z"/><path class="cls-10" d="M316.93,121.48c0,1.3,0,2.44.11,3.43h-2l-.13-2h-.05a4.75,4.75,0,0,1-4.16,2.34c-2,0-4.35-1.09-4.35-5.52v-7.35h2.29v7c0,2.4.73,4,2.81,4a3.33,3.33,0,0,0,3-2.08,3.38,3.38,0,0,0,.2-1.17v-7.72h2.29Z"/><path class="cls-10" d="M322,122.57a6.06,6.06,0,0,0,3,.91c1.67,0,2.44-.83,2.44-1.87s-.64-1.69-2.34-2.32c-2.26-.8-3.32-2.05-3.32-3.56,0-2,1.64-3.69,4.34-3.69a6.23,6.23,0,0,1,3.09.78l-.57,1.66a4.89,4.89,0,0,0-2.57-.72c-1.35,0-2.11.78-2.11,1.71s.76,1.51,2.39,2.13c2.19.84,3.31,1.93,3.31,3.8,0,2.21-1.72,3.77-4.71,3.77a7.2,7.2,0,0,1-3.54-.86Z"/><path class="cls-10" d="M336.9,108.71v3.62h3.27v1.74H336.9v6.78c0,1.56.44,2.45,1.71,2.45a5,5,0,0,0,1.33-.16l.1,1.72a5.61,5.61,0,0,1-2,.31,3.17,3.17,0,0,1-2.47-1,4.68,4.68,0,0,1-.89-3.28v-6.86h-2v-1.74h2v-3Z"/><path class="cls-10" d="M344.31,116.25c0-1.48,0-2.75-.11-3.92h2l.07,2.47h.11a3.78,3.78,0,0,1,3.48-2.76,2.57,2.57,0,0,1,.65.08v2.16a3,3,0,0,0-.78-.08,3.22,3.22,0,0,0-3.07,2.94,6.59,6.59,0,0,0-.1,1.06v6.71h-2.26Z"/><path class="cls-10" d="M357,108.79a1.34,1.34,0,0,1-1.45,1.4,1.36,1.36,0,0,1-1.38-1.4,1.39,1.39,0,0,1,1.43-1.43A1.35,1.35,0,0,1,357,108.79Zm-2.55,16.12V112.33h2.29v12.58Z"/><path class="cls-10" d="M363.39,119c.05,3.1,2,4.37,4.32,4.37a8.16,8.16,0,0,0,3.48-.65l.39,1.64a10.21,10.21,0,0,1-4.18.78c-3.88,0-6.19-2.55-6.19-6.34s2.23-6.79,5.9-6.79c4.11,0,5.2,3.62,5.2,5.93a7.64,7.64,0,0,1-.08,1.06Zm6.71-1.63c0-1.46-.6-3.72-3.17-3.72-2.31,0-3.33,2.13-3.51,3.72Z"/><path class="cls-10" d="M376.39,122.57a6,6,0,0,0,3,.91c1.66,0,2.44-.83,2.44-1.87s-.65-1.69-2.34-2.32c-2.26-.8-3.33-2.05-3.33-3.56,0-2,1.64-3.69,4.35-3.69a6.23,6.23,0,0,1,3.09.78l-.57,1.66a5,5,0,0,0-2.58-.72c-1.35,0-2.1.78-2.1,1.71s.75,1.51,2.39,2.13c2.18.84,3.3,1.93,3.3,3.8,0,2.21-1.71,3.77-4.7,3.77a7.18,7.18,0,0,1-3.54-.86Z"/><path class="cls-10" d="M402.78,107.39H405V123h7.49v1.9h-9.75Z"/><path class="cls-10" d="M416.61,107.39h2.27V123h7.48v1.9h-9.75Z"/><path class="cls-10" d="M441.68,124.34a11.39,11.39,0,0,1-4.63.83c-4.94,0-8.66-3.12-8.66-8.87,0-5.48,3.72-9.2,9.15-9.2a9.41,9.41,0,0,1,4.16.78l-.54,1.85a8.19,8.19,0,0,0-3.54-.73c-4.11,0-6.84,2.62-6.84,7.23,0,4.29,2.47,7,6.74,7a8.94,8.94,0,0,0,3.69-.73Z"/><path class="cls-11" d="M93.13,12.23V53.87q-23,.62-46.73.83-23.49.21-46.27,0c-.11-.18,61.7,3.41,93,4.32V103.8h6.78V12.23Z"/><path class="cls-12" d="M505,7.71V49.35q23,.61,46.74.83,23.49.21,46.27,0c.1-.18-61.7,3.41-93,4.32V99.28h-6.78V7.71Z"/><path class="cls-13" d="M371.15,56.1c-4.23-3.47-9.68-2.54-10.83-2.34-7.56,1.29-14.15,8.51-14.74,16.82-.37,5.3,1.57,12.84,6.91,15.26,8.16,3.7,21.19-5.91,22.83-16.43C375.46,68.54,376.57,60.56,371.15,56.1Zm-1.83,12.39c-.45,6.32-8.9,12-13.69,9.92a5.87,5.87,0,0,1-2.87-3c-2.33-5.07,1.94-13,7.67-14.43a7.57,7.57,0,0,1,6.28,1C369.57,64.15,369.35,68.11,369.32,68.49Z"/></g></g></svg>