<svg xmlns="http://www.w3.org/2000/svg" viewBox="0 0 20.23 21.83"><defs><style>.cls-1{fill:none;stroke:#fff;stroke-miterlimit:10;stroke-width:0.75px;}.cls-2{fill:#fff;}</style></defs><g id="Layer_2" data-name="Layer 2"><g id="Layer_2-2" data-name="Layer 2"><rect class="cls-1" x="3.4" y="8.55" width="2.52" height="2.52" rx="0.23"/><rect class="cls-1" x="3.4" y="12.04" width="2.52" height="2.52" rx="0.23"/><rect class="cls-1" x="3.4" y="15.52" width="2.52" height="2.52" rx="0.23"/><path class="cls-2" d="M13.72,19.32v.53H1.43V4.22h1c.57,1,2.6,1.67,5,1.67S12,5.18,12.57,4.22h1.15V5.74a7.46,7.46,0,0,1,1.43.18V3.22a1,1,0,0,0-1-1H9.81a2.24,2.24,0,0,0-4.48,0H1a1,1,0,0,0-1,1V20.85a1,1,0,0,0,1,1H14.17a1,1,0,0,0,1-1V19.14A7.46,7.46,0,0,1,13.72,19.32ZM6.81,2.24a.76.76,0,0,1,.71-.76h.05a.77.77,0,0,1,.77.77h0a.77.77,0,1,1-1.53,0Z"/><path class="cls-2" d="M13.61,5.89a6.62,6.62,0,1,0,6.62,6.62A6.62,6.62,0,0,0,13.61,5.89Zm-.92,10.66-3-3.73,1.07-1.13L12.57,14l3.65-5.5,1.28.82Z"/></g></g></svg>