<svg xmlns="http://www.w3.org/2000/svg" viewBox="0 0 18.06 13.16"><defs><style>.cls-1{fill:#fff;}</style></defs><g id="Layer_2" data-name="Layer 2"><g id="Layer_2-2" data-name="Layer 2"><path class="cls-1" d="M2.2,8.4H0V9.76a1,1,0,0,0,.75,1A2.69,2.69,0,0,1,2.2,8.4Z"/><path class="cls-1" d="M4.75,8.4a2.7,2.7,0,0,1,1.42,2.36h4.05V8.4Z"/><path class="cls-1" d="M3.51,8.36a2.4,2.4,0,1,0,2.4,2.4A2.41,2.41,0,0,0,3.51,8.36Zm0,3.65a1.25,1.25,0,1,1,0-2.49,1.25,1.25,0,0,1,0,2.49Z"/><path class="cls-1" d="M14.74,8.66a2.1,2.1,0,1,0,2.1,2.1A2.1,2.1,0,0,0,14.74,8.66Zm0,3.19a1.09,1.09,0,1,1,1.09-1.09A1.09,1.09,0,0,1,14.74,11.85Z"/><path class="cls-1" d="M8.51,0H1.71A1.7,1.7,0,0,0,0,1.71V8H10.22V1.71A1.7,1.7,0,0,0,8.51,0ZM5.43,5.9V4.55H2.89V3.45H5.43V2.1L7.33,4Z"/><path class="cls-1" d="M14,2.34H10.72v8.42h1.64a2.39,2.39,0,0,1,4.78,0h.92V6.36A4,4,0,0,0,14,2.34Zm.17,2.74a4.43,4.43,0,0,0-1.36.34V3.29c2.09,0,3.78,1,3.78,2.13A5.37,5.37,0,0,0,14.21,5.08Z"/></g></g></svg>