<svg xmlns="http://www.w3.org/2000/svg" viewBox="0 0 16.52 19.93"><defs><style>.cls-1{fill:#fff;}</style></defs><g id="Layer_2" data-name="Layer 2"><g id="Layer_2-2" data-name="Layer 2"><path class="cls-1" d="M14.09,0H0V19.93H16.52V2.56ZM1.54,2.17H8.09v.27H1.54Zm0,.72H8.09v.27H1.54Zm0,.73H8.09v.27H1.54Zm0,.65H8.09v.27H1.54Zm0,.72H8.09v.27H1.54Zm0,.73H8.09V6H1.54Zm0,.72H8.09v.27H1.54Zm0,.71H8.09v.27H1.54Zm0,.71H8.09v.27H1.54ZM14.78,18H1.41v-.34H14.78Zm0-.91H1.41v-.34H14.78Zm0-.91H1.41v-.34H14.78Zm0-.92H1.41v-.34H14.78Zm0-.91H1.41V14H14.78Zm0-.92H1.41v-.33H14.78Zm0-.91H1.41v-.34H14.78Zm0-.91H1.41v-.34H14.78Zm0-.92H1.41v-.34H14.78Zm0-.91H1.41V9.45H14.78Zm0-.91H1.41V8.54H14.78Zm0-.75h-6v-6h6Z"/></g></g></svg>