<svg xmlns="http://www.w3.org/2000/svg" viewBox="0 0 15.15 15.15"><defs><style>.cls-1{fill:#fff;}</style></defs><g id="Layer_2" data-name="Layer 2"><g id="Layer_2-2" data-name="Layer 2"><path class="cls-1" d="M15.15,8.83V6.31H13.56a6.36,6.36,0,0,0-.86-2.08l1.12-1.12L12,1.33,10.92,2.45a5.93,5.93,0,0,0-2.09-.86V0H6.31V1.59a6,6,0,0,0-2.08.86L3.11,1.33,1.33,3.11,2.45,4.23a6,6,0,0,0-.86,2.08H0V8.83H1.59a5.93,5.93,0,0,0,.86,2.09L1.33,12l1.78,1.78L4.23,12.7a6.36,6.36,0,0,0,2.08.86v1.59H8.83V13.56a6.32,6.32,0,0,0,2.09-.86L12,13.82,13.82,12,12.7,10.92a6.32,6.32,0,0,0,.86-2.09ZM7.57,12A4.43,4.43,0,1,1,12,7.57,4.42,4.42,0,0,1,7.57,12Z"/></g></g></svg>