<svg xmlns="http://www.w3.org/2000/svg" viewBox="0 0 21.26 20.89"><defs><style>.cls-1{fill:#fff;}</style></defs><g id="Layer_2" data-name="Layer 2"><g id="Layer_2-2" data-name="Layer 2"><path class="cls-1" d="M20.67,13.63,14.11,5.74v7.89h0L7.56,5.74v7.89h-5V0H1.37V13.63H0v7.26H21.26V13.63ZM4.61,19.5H3V17.93H4.61Zm0-3H3V14.89H4.61Zm2.87,3H5.91V17.93H7.48Zm0-3H5.91V14.89H7.48Zm3,3H8.89V17.93h1.57Zm0-3H8.89V14.89h1.57Zm2.87,3H11.76V17.93h1.57Zm0-3H11.76V14.89h1.57Zm3,3.17H14.78V18.06h1.57Zm0-3H14.78V15h1.57Zm2.87,3H17.65V18.06h1.57Zm0-3H17.65V15h1.57Z"/></g></g></svg>