<svg xmlns="http://www.w3.org/2000/svg" viewBox="0 0 93.17 117.72"><defs><style>.cls-1{fill:#fff;}.cls-2,.cls-3,.cls-4,.cls-5,.cls-6,.cls-7,.cls-8{fill:none;stroke:#000;stroke-miterlimit:10;stroke-width:0.75px;}.cls-3{stroke-dasharray:7.02 7.02;}.cls-4{stroke-dasharray:5.99 5.99;}.cls-5{stroke-dasharray:5.92 5.92;}.cls-6{stroke-dasharray:6.98 6.98;}.cls-7{stroke-dasharray:7.48 7.48;}.cls-8{stroke-dasharray:7.47 7.47;}</style></defs><g id="Layer_2" data-name="Layer 2"><g id="Layer_2-2" data-name="Layer 2"><path class="cls-1" d="M82.59,11.63,93.15,26.85c-2.07,1.74-15.51,13.41-16,33.08-.49,20.9,14.09,33.57,16,35.15l-10.48,15a25.37,25.37,0,0,0-19.13-4.38,25.55,25.55,0,0,0-16.89,12,25.65,25.65,0,0,0-16.3-11.57,25.66,25.66,0,0,0-19.65,4.13Q5.37,102.62,0,94.94c1.78-1.45,16.73-14.07,16.15-35C15.61,40.42,2,29,0,27.33l10.56-15.7c.74.36,9.48,4.43,17.88-.44A19.21,19.21,0,0,0,37,0H56.78a18.17,18.17,0,0,0,8.55,11.78C73.65,16.42,82.08,11.91,82.59,11.63Z"/><path class="cls-2" d="M75.18,17.26A15.9,15.9,0,0,0,78.42,16l2,2.9"/><path class="cls-2" d="M85.79,26.88l2,2.9c-.41.36-1.33,1.17-2.52,2.42"/><path class="cls-3" d="M80.84,37.66a40.79,40.79,0,0,0-7.2,22.17A41.45,41.45,0,0,0,83,86.68"/><path class="cls-2" d="M85.26,89.34a33.42,33.42,0,0,0,2.51,2.43l-2,2.9"/><path class="cls-2" d="M80.48,102.5l-2,2.9a21.37,21.37,0,0,0-3-1.85"/><path class="cls-4" d="M69.92,101.53a20.63,20.63,0,0,0-8.33-.11,21.3,21.3,0,0,0-11,5.82"/><path class="cls-2" d="M48.63,109.45a20.46,20.46,0,0,0-2,2.89,21.61,21.61,0,0,0-2-2.85"/><path class="cls-5" d="M40.33,105.44a21.23,21.23,0,0,0-19.74-2.83"/><path class="cls-2" d="M17.87,103.77a20.35,20.35,0,0,0-3,1.81l-2-2.9"/><path class="cls-2" d="M7.37,94.54l-2-2.9a30.41,30.41,0,0,0,2.54-2.4"/><path class="cls-6" d="M12.35,83.84a40,40,0,0,0,7.33-24,40.42,40.42,0,0,0-9.4-24.62"/><path class="cls-2" d="M8,32.6A33.8,33.8,0,0,0,5.4,30.22l1.91-2.93"/><path class="cls-2" d="M12.81,18.88,14.73,16A17.49,17.49,0,0,0,18,17.12"/><path class="cls-7" d="M25.43,17.46a15.33,15.33,0,0,0,5.12-1.91,16.29,16.29,0,0,0,4.29-3.76"/><path class="cls-2" d="M36.85,8.64a17.81,17.81,0,0,0,1.26-3.26h3.5"/><path class="cls-2" d="M52.1,5.38h3.5A15.94,15.94,0,0,0,56.68,8.7"/><path class="cls-8" d="M61.09,14.65a14.53,14.53,0,0,0,2.07,1.43,14.42,14.42,0,0,0,8.36,1.86"/></g></g></svg>