<svg xmlns="http://www.w3.org/2000/svg" viewBox="0 0 15 7.24"><defs><style>.cls-1{fill:#fff;}.cls-2{font-size:4px;font-family:MyriadPro-Regular, Myriad Pro;}.cls-2,.cls-3{stroke:#000;stroke-miterlimit:10;stroke-width:0.25px;}</style></defs><g id="Layer_2" data-name="Layer 2"><g id="Layer_2-2" data-name="Layer 2"><path class="cls-1" d="M12,1.47H3.18a.7.7,0,0,1-.7.7V5h.09a.69.69,0,0,1,.69.69.51.51,0,0,1,0,.13H12a.7.7,0,0,1,.7-.7V2.17A.7.7,0,0,1,12,1.47Z"/><path class="cls-1" d="M14.26,0H.74A.74.74,0,0,0,0,.74V6.5a.74.74,0,0,0,.74.74H14.26A.74.74,0,0,0,15,6.5V.74A.74.74,0,0,0,14.26,0ZM1.72,6.71h0a.88.88,0,0,0,.06-.33A.87.87,0,0,0,1,5.51V1.73A.86.86,0,0,0,1.75.88.93.93,0,0,0,1.69.54H13.31a.93.93,0,0,0-.06.34.86.86,0,0,0,.77.85V5.51a.87.87,0,0,0-.77.86.88.88,0,0,0,.06.33H1.72Z"/><text class="cls-2" transform="translate(6.34 4.98)">$</text><rect class="cls-3" x="4.38" y="3.22" width="0.81" height="0.81" rx="0.41"/><rect class="cls-3" x="9.99" y="3.22" width="0.81" height="0.81" rx="0.41"/></g></g></svg>