<svg xmlns="http://www.w3.org/2000/svg" viewBox="0 0 16.99 12.52"><defs><style>.cls-1,.cls-2{fill:#fff;}.cls-1{stroke:#020202;stroke-miterlimit:10;stroke-width:0.25px;}</style></defs><g id="Layer_2" data-name="Layer 2"><g id="Layer_2-2" data-name="Layer 2"><path class="cls-1" d="M6.36,4.92a2.47,2.47,0,0,1-2.57,0A5,5,0,0,0,.12,9.7a.55.55,0,0,0,.55.54H9.48A.55.55,0,0,0,10,9.7,5,5,0,0,0,6.36,4.92Z"/><circle class="cls-2" cx="5.08" cy="2.92" r="2.21"/><path class="cls-1" d="M12.1,5.48a3.44,3.44,0,0,1-1.68.46,3.37,3.37,0,0,1-1.67-.46A6.44,6.44,0,0,0,4,11.69a.7.7,0,0,0,.7.71H16.16a.71.71,0,0,0,.71-.71A6.45,6.45,0,0,0,12.1,5.48Z"/><circle class="cls-2" cx="10.42" cy="2.88" r="2.88"/></g></g></svg>